<svg height="238" viewBox="150 35 19792 1798" width="2500" xmlns="http://www.w3.org/2000/svg"><path d="m10640 1816c-253-54-415-219-466-476-22-111-15-324 14-422 62-208 205-348 413-404 91-25 310-24 399 1 243 69 389 240 431 505 14 92 6 282-16 365-55 212-205 365-410 421-82 22-282 27-365 10zm266-294c51-26 67-45 101-117 27-59 28-63 27-240 0-195-7-230-61-308-47-67-134-96-229-77-141 29-202 187-183 473 10 155 70 256 169 286 48 14 130 7 176-17zm-3402 284c-96-18-137-32-214-72-214-112-325-336-306-619 13-195 66-325 180-441 125-126 263-178 481-177 202 0 325 43 424 148 100 106 139 221 148 438l6 147h-421c-274 0-423 4-427 10-13 22 17 119 53 171 114 161 429 172 670 22 40-24 79-42 87-39 12 4 15 34 15 164v160l-49 21c-125 53-227 73-406 77-116 2-193-1-241-10zm331-853c-11-79-53-154-102-181-57-31-173-33-231-3-54 28-98 82-117 143-28 96-47 88 221 88h235zm7108 848c-103-35-168-97-222-211-23-49-26-67-25-165 0-91 4-120 24-169 42-110 152-193 312-235 79-21 291-51 366-51 64 0 76-10 69-53-13-83-77-124-218-140-101-12-210 4-326 49-38 14-83 28-100 31l-33 5v-301l43-12c183-49 482-65 648-33 192 36 310 128 353 274 14 46 16 124 16 527v473h-380v-133l-32 27c-66 54-137 95-196 115-80 27-224 28-299 2zm406-266c23-8 60-27 81-42l40-28v-132c0-120-2-133-17-133-10 0-65 7-123 15-178 26-243 73-245 180 0 73 20 114 69 136 50 23 138 25 195 4zm2706 279c-11-3-51-12-90-20-315-72-495-356-454-719 20-180 75-302 184-404 118-109 252-159 454-168 166-8 302 18 424 79l37 18v330h-24c-14 0-59-24-101-55-162-116-348-128-463-29-111 94-153 332-90 503 29 79 105 154 177 175 138 41 293 6 400-90 31-28 58-44 75-44h26v339l-82 31c-119 46-197 60-333 59-66-1-129-3-140-5zm1215 0c-293-51-458-181-532-417-20-63-23-92-23-237 1-152 3-171 28-247 33-97 108-215 175-273 26-22 79-55 117-74 113-56 181-70 340-69 127 0 148 2 225 28 154 53 252 152 306 310 24 70 28 100 32 238l4 157h-842v33c0 52 28 121 67 166 50 59 118 90 224 104 156 20 287-11 439-103 46-28 74-40 81-33 6 6 8 74 7 167l-3 158-60 24c-122 50-208 66-390 69-93 2-181 2-195-1zm287-868c-11-107-73-180-164-194-108-17-202 16-248 87-24 36-56 139-48 154 2 4 108 7 235 7h231zm-13957 9v-835h358c474 0 567 15 711 111 119 80 181 196 197 374 8 95-17 229-62 322-59 124-193 235-344 285-55 18-95 22-257 26l-193 4v548h-410zm660-36c62-13 126-60 153-113 25-48 34-168 17-220-33-102-113-144-295-153l-125-6v503h100c54 0 122-5 150-11zm2150 241v-630h390v85c0 47 2 85 5 85s31-21 63-47c31-25 91-62 132-82 68-33 83-36 160-36h85v359l-145 1c-124 0-156 3-222 24l-78 24v847h-390zm1010 623c0-5-1-226-3-493l-2-485-77-3-78-3v-268l78-3 77-3 7-90c7-98 14-129 47-193 50-99 145-165 276-193 63-14 279-14 375-1l55 7 3 142c3 163 12 151-100 127-79-17-145-13-208 12-46 19-69 60-77 140l-6 54h313v269l-147 3-148 3-3 493-2 492h-190c-105 0-190-3-190-7zm2232-620 3-628 193-3 192-2v85c0 47 2 85 5 85s36-23 73-52c107-82 180-112 285-116l87-4v367h-152c-139 0-160 3-223 26l-70 25-3 422-2 422h-390zm978-3v-630h389l3 65 3 65 68-49c38-28 94-63 125-78 52-25 67-28 167-28 104 0 113 2 171 32 63 33 112 80 140 136 9 17 18 34 20 36s25-15 51-38c73-65 175-129 240-152 86-30 217-24 293 15 68 34 103 67 140 131 58 101 60 127 60 649v476h-390v-422c0-394-2-426-19-465-27-59-60-77-140-77-56 0-76 5-128 33l-63 34v897h-389l-3-427c-3-394-5-431-22-464-26-51-68-72-141-73-50 0-71 5-122 33l-63 34v897h-390zm3512 3 3-628 193-3 192-2v140l58-43c126-95 210-127 332-127 184 0 305 86 362 258 21 65 22 83 26 550l3 482h-391v-352c0-373-9-501-36-547-28-47-70-65-149-65-59 0-80 5-137 33l-68 34v897h-390zm-13630 608-64-6 129-205c554-881 915-1438 936-1444 30-8 417-8 540 1l97 6 1 271c1 149 4 281 7 294 6 19 38-27 192-269 125-196 193-294 209-300 13-5 148-8 300-7l276 3v1660h-620l-5-303-5-303-43 73c-24 40-102 177-175 303l-132 230h-600l-3-312c-1-172-6-313-10-313s-28 33-53 73c-25 39-114 181-199 315l-153 242-281-2c-155-1-310-4-344-7z"/><path d="m820 1762c0-10 102-166 226-347 222-325 326-484 680-1042l179-283h827l-4 23c-3 12-218 344-479 737s-506 763-544 822l-70 108h-407c-386 0-408-1-408-18z" fill="#011487"/><path d="m150 1770c0-6 250-386 557-845l556-835h689l-19 32c-23 39-299 474-491 773-73 116-238 362-365 548l-231 337h-348c-226 0-348-4-348-10z" fill="#0563c5"/><path d="m1590 1774c0-5 147-228 759-1152l353-532h688l-26 42c-31 48-383 588-797 1221l-279 427h-349c-192 0-349-3-349-6z" fill="#ff0203"/></svg>